<svg xmlns="http://www.w3.org/2000/svg" xmlns:xlink="http://www.w3.org/1999/xlink" id="Ebene_1" x="0px" y="0px" width="419.53px" height="113.702px" viewBox="0 0 419.53 113.702" xml:space="preserve"><g>	<path fill="#172982" d="M174.981,89.66h6.236v0.93h-6.236v6.255h-1.046V83.056h8.366v0.93h-7.32V89.66z"></path>	<path fill="#172982" d="M191.811,92.178c0,0.671-0.071,1.343-0.213,2.014c-0.142,0.672-0.458,1.253-0.949,1.743  c-0.685,0.685-1.549,1.026-2.595,1.026s-1.911-0.342-2.595-1.026c-0.491-0.49-0.807-1.071-0.949-1.743  c-0.142-0.671-0.213-1.343-0.213-2.014c0-0.672,0.071-1.343,0.213-2.015c0.142-0.671,0.458-1.252,0.949-1.743  c0.685-0.684,1.549-1.026,2.595-1.026s1.911,0.343,2.595,1.026c0.491,0.491,0.807,1.072,0.949,1.743  C191.739,90.835,191.811,91.506,191.811,92.178z M190.823,92.178c0-0.271-0.007-0.549-0.02-0.833s-0.048-0.564-0.106-0.843  c-0.058-0.277-0.142-0.539-0.251-0.784c-0.11-0.245-0.262-0.465-0.456-0.658c-0.529-0.529-1.175-0.794-1.937-0.794  s-1.407,0.265-1.937,0.794c-0.194,0.193-0.346,0.413-0.455,0.658c-0.11,0.245-0.194,0.507-0.252,0.784  c-0.058,0.278-0.094,0.559-0.106,0.843s-0.02,0.562-0.02,0.833c0,0.271,0.007,0.549,0.02,0.832  c0.013,0.284,0.048,0.565,0.106,0.843c0.058,0.278,0.142,0.539,0.252,0.784c0.109,0.246,0.261,0.465,0.455,0.659  c0.529,0.529,1.175,0.794,1.937,0.794s1.407-0.265,1.937-0.794c0.194-0.194,0.346-0.413,0.456-0.659  c0.109-0.245,0.193-0.506,0.251-0.784c0.058-0.277,0.094-0.559,0.106-0.843C190.816,92.727,190.823,92.448,190.823,92.178z   M185.478,83.733h1.124v1.491h-1.124V83.733z M189.506,83.733h1.123v1.491h-1.123V83.733z"></path>	<path fill="#172982" d="M200.273,89.001c-0.284-0.283-0.552-0.478-0.804-0.581c-0.252-0.103-0.571-0.154-0.959-0.154  c-0.4,0-0.755,0.077-1.065,0.232c-0.31,0.154-0.571,0.361-0.784,0.619c-0.213,0.259-0.375,0.559-0.484,0.9  c-0.11,0.343-0.165,0.701-0.165,1.075v5.752h-0.988V87.51h0.988v1.24c0.271-0.439,0.655-0.775,1.152-1.008s1.023-0.349,1.578-0.349  c0.452,0,0.855,0.065,1.21,0.194s0.7,0.361,1.036,0.697L200.273,89.001z"></path>	<path fill="#172982" d="M208.059,95.644c-0.414,0.543-0.843,0.898-1.288,1.065c-0.445,0.168-0.939,0.252-1.481,0.252  c-0.491,0-0.933-0.074-1.327-0.223c-0.394-0.148-0.713-0.346-0.958-0.591c-0.478-0.478-0.797-1.075-0.959-1.791  c-0.161-0.717-0.242-1.443-0.242-2.179c0-0.736,0.081-1.463,0.242-2.179c0.162-0.717,0.481-1.313,0.959-1.792  c0.245-0.245,0.564-0.441,0.958-0.591c0.394-0.147,0.836-0.223,1.327-0.223c0.542,0,1.036,0.085,1.481,0.252  c0.445,0.168,0.875,0.523,1.288,1.065v-5.655h0.987v13.789h-0.987V95.644z M208.059,92.178c0-0.478-0.029-0.952-0.087-1.424  c-0.058-0.471-0.181-0.891-0.368-1.259c-0.188-0.368-0.455-0.665-0.804-0.891s-0.807-0.339-1.375-0.339  c-0.568,0-1.027,0.113-1.375,0.339c-0.349,0.226-0.617,0.522-0.804,0.891c-0.188,0.368-0.31,0.788-0.368,1.259  c-0.058,0.472-0.087,0.946-0.087,1.424c0,0.49,0.029,0.968,0.087,1.433s0.181,0.882,0.368,1.249  c0.187,0.368,0.455,0.665,0.804,0.892c0.348,0.226,0.807,0.339,1.375,0.339c0.568,0,1.026-0.113,1.375-0.339  c0.349-0.227,0.616-0.523,0.804-0.892c0.187-0.367,0.31-0.784,0.368-1.249S208.059,92.668,208.059,92.178z"></path>	<path fill="#172982" d="M213.248,92.391c0,1.2,0.256,2.114,0.766,2.74s1.268,0.939,2.275,0.939c0.555,0,1.023-0.087,1.404-0.262  c0.381-0.174,0.771-0.462,1.172-0.861l0.734,0.58c-0.232,0.232-0.467,0.439-0.705,0.62c-0.24,0.181-0.492,0.333-0.756,0.455  c-0.266,0.123-0.553,0.213-0.861,0.271c-0.311,0.058-0.66,0.087-1.047,0.087c-1.291,0-2.275-0.406-2.953-1.22  s-1.018-2.002-1.018-3.563c0-1.523,0.33-2.702,0.988-3.535c0.658-0.832,1.576-1.249,2.75-1.249c1.176,0,2.092,0.397,2.75,1.191  s0.988,1.914,0.988,3.36v0.445H213.248z M218.748,91.597c-0.014-0.22-0.025-0.41-0.039-0.571c-0.012-0.161-0.029-0.307-0.047-0.436  c-0.02-0.129-0.049-0.252-0.088-0.368s-0.09-0.245-0.154-0.388c-0.207-0.49-0.527-0.874-0.959-1.152  c-0.434-0.277-0.92-0.416-1.463-0.416c-0.541,0-1.029,0.139-1.461,0.416c-0.434,0.278-0.754,0.662-0.959,1.152l-0.137,0.407  c-0.039,0.116-0.066,0.235-0.086,0.357c-0.02,0.123-0.039,0.262-0.059,0.417c-0.02,0.154-0.035,0.349-0.049,0.581H218.748z"></path>	<path fill="#172982" d="M228.18,89.001c-0.283-0.283-0.551-0.478-0.803-0.581c-0.252-0.103-0.572-0.154-0.959-0.154  c-0.4,0-0.756,0.077-1.064,0.232c-0.311,0.154-0.572,0.361-0.785,0.619c-0.213,0.259-0.375,0.559-0.484,0.9  c-0.109,0.343-0.164,0.701-0.164,1.075v5.752h-0.988V87.51h0.988v1.24c0.271-0.439,0.654-0.775,1.152-1.008  c0.496-0.232,1.023-0.349,1.578-0.349c0.451,0,0.855,0.065,1.211,0.194c0.354,0.129,0.699,0.361,1.035,0.697L228.18,89.001z"></path>	<path fill="#172982" d="M243.248,91.054c0-0.903-0.217-1.594-0.65-2.071c-0.432-0.478-1.074-0.717-1.926-0.717  c-0.814,0-1.457,0.232-1.928,0.697s-0.707,1.104-0.707,1.917v5.965h-0.986v-5.791c0-0.903-0.217-1.594-0.65-2.071  c-0.432-0.478-1.074-0.717-1.926-0.717c-0.854,0-1.504,0.242-1.957,0.726c-0.451,0.484-0.678,1.172-0.678,2.063v5.791h-0.986V87.51  h0.986v1.104c0.697-0.813,1.621-1.221,2.77-1.221c0.697,0,1.301,0.146,1.811,0.437c0.51,0.29,0.908,0.713,1.191,1.269  c0.35-0.556,0.791-0.979,1.326-1.269c0.537-0.291,1.152-0.437,1.85-0.437c0.518,0,0.982,0.078,1.395,0.232  c0.414,0.155,0.768,0.375,1.066,0.659c0.645,0.619,0.967,1.484,0.967,2.595v5.965h-0.967V91.054z"></path>	<path fill="#172982" d="M247.74,83.056h1.221v1.221h-1.221V83.056z M247.857,87.51h0.986v9.335h-0.986V87.51z"></path>	<path fill="#172982" d="M255.08,96.845c-0.736,0-1.295-0.229-1.676-0.688s-0.57-1.042-0.57-1.753v-6.158h-1.279V87.51h1.279v-2.982  h0.986v2.982h2.111v0.736h-2.111v6.178c0,0.491,0.117,0.872,0.35,1.143c0.232,0.271,0.594,0.407,1.084,0.407h0.678v0.871H255.08z"></path>	<path fill="#172982" d="M261.373,96.845c-0.736,0-1.295-0.229-1.674-0.688c-0.381-0.458-0.572-1.042-0.572-1.753v-6.158h-1.277  V87.51h1.277v-2.982h0.988v2.982h2.111v0.736h-2.111v6.178c0,0.491,0.115,0.872,0.348,1.143c0.232,0.271,0.594,0.407,1.086,0.407  h0.678v0.871H261.373z"></path>	<path fill="#172982" d="M265.576,92.391c0,1.2,0.256,2.114,0.766,2.74s1.268,0.939,2.275,0.939c0.555,0,1.023-0.087,1.404-0.262  c0.381-0.174,0.771-0.462,1.172-0.861l0.734,0.58c-0.232,0.232-0.467,0.439-0.705,0.62c-0.24,0.181-0.492,0.333-0.756,0.455  c-0.266,0.123-0.553,0.213-0.861,0.271c-0.311,0.058-0.66,0.087-1.047,0.087c-1.291,0-2.275-0.406-2.953-1.22  s-1.018-2.002-1.018-3.563c0-1.523,0.33-2.702,0.988-3.535c0.658-0.832,1.576-1.249,2.75-1.249c1.176,0,2.092,0.397,2.75,1.191  s0.988,1.914,0.988,3.36v0.445H265.576z M271.076,91.597c-0.014-0.22-0.025-0.41-0.039-0.571c-0.012-0.161-0.029-0.307-0.047-0.436  c-0.02-0.129-0.049-0.252-0.088-0.368s-0.09-0.245-0.154-0.388c-0.207-0.49-0.527-0.874-0.959-1.152  c-0.434-0.277-0.92-0.416-1.463-0.416c-0.541,0-1.029,0.139-1.461,0.416c-0.434,0.278-0.754,0.662-0.959,1.152l-0.137,0.407  c-0.039,0.116-0.066,0.235-0.086,0.357c-0.02,0.123-0.039,0.262-0.059,0.417c-0.02,0.154-0.035,0.349-0.049,0.581H271.076z"></path>	<path fill="#172982" d="M277.467,96.845c-0.773,0-1.342-0.22-1.703-0.658c-0.361-0.439-0.543-1.026-0.543-1.763V83.056h0.988  v11.349c0,0.543,0.1,0.939,0.301,1.191c0.199,0.252,0.576,0.378,1.133,0.378h0.678v0.871H277.467z"></path>	<path fill="#172982" d="M293.213,91.054c0-0.903-0.217-1.594-0.65-2.071c-0.432-0.478-1.074-0.717-1.926-0.717  c-0.814,0-1.457,0.232-1.928,0.697s-0.707,1.104-0.707,1.917v5.965h-0.986v-5.791c0-0.903-0.217-1.594-0.65-2.071  c-0.432-0.478-1.074-0.717-1.926-0.717c-0.854,0-1.504,0.242-1.957,0.726c-0.451,0.484-0.678,1.172-0.678,2.063v5.791h-0.986V87.51  h0.986v1.104c0.697-0.813,1.621-1.221,2.77-1.221c0.697,0,1.301,0.146,1.811,0.437c0.51,0.29,0.908,0.713,1.191,1.269  c0.35-0.556,0.791-0.979,1.326-1.269c0.537-0.291,1.152-0.437,1.85-0.437c0.518,0,0.982,0.078,1.395,0.232  c0.414,0.155,0.768,0.375,1.066,0.659c0.645,0.619,0.967,1.484,0.967,2.595v5.965h-0.967V91.054z"></path>	<path fill="#172982" d="M303.303,95.915c-0.4,0.4-0.811,0.675-1.23,0.823s-0.959,0.223-1.617,0.223  c-0.697,0-1.256-0.064-1.676-0.193s-0.777-0.349-1.074-0.659c-0.219-0.219-0.387-0.49-0.504-0.813  c-0.115-0.323-0.174-0.659-0.174-1.008c0-0.852,0.287-1.514,0.861-1.984c0.574-0.472,1.373-0.707,2.393-0.707h3.021v-1.046  c0-0.749-0.197-1.317-0.592-1.704c-0.393-0.388-1.074-0.581-2.043-0.581c-0.658,0-1.178,0.09-1.559,0.271  c-0.381,0.182-0.721,0.484-1.018,0.91l-0.715-0.619c0.398-0.555,0.854-0.933,1.365-1.133c0.51-0.2,1.152-0.301,1.926-0.301  c1.252,0,2.17,0.265,2.75,0.794c0.582,0.53,0.871,1.285,0.871,2.267v6.391h-0.986V95.915z M300.396,92.391  c-1.588,0-2.381,0.626-2.381,1.878c0,0.62,0.193,1.078,0.58,1.375c0.389,0.298,1.008,0.446,1.859,0.446  c0.426,0,0.836-0.039,1.23-0.116c0.393-0.078,0.758-0.278,1.094-0.601c0.348-0.322,0.523-0.917,0.523-1.782v-1.2H300.396z"></path>	<path fill="#172982" d="M314.166,91.054c0-0.903-0.217-1.594-0.648-2.071c-0.434-0.478-1.074-0.717-1.928-0.717  c-0.852,0-1.504,0.242-1.955,0.726c-0.453,0.484-0.678,1.172-0.678,2.063v5.791h-0.988V87.51h0.988v1.104  c0.697-0.813,1.613-1.221,2.75-1.221c1.045,0,1.871,0.298,2.479,0.892c0.645,0.619,0.969,1.484,0.969,2.595v5.965h-0.988V91.054z"></path>	<path fill="#172982" d="M324.275,95.915c-0.4,0.4-0.811,0.675-1.23,0.823s-0.959,0.223-1.617,0.223  c-0.697,0-1.256-0.064-1.676-0.193s-0.777-0.349-1.074-0.659c-0.219-0.219-0.387-0.49-0.504-0.813  c-0.115-0.323-0.174-0.659-0.174-1.008c0-0.852,0.287-1.514,0.861-1.984c0.574-0.472,1.373-0.707,2.393-0.707h3.021v-1.046  c0-0.749-0.197-1.317-0.592-1.704c-0.393-0.388-1.074-0.581-2.043-0.581c-0.658,0-1.178,0.09-1.559,0.271  c-0.381,0.182-0.721,0.484-1.018,0.91l-0.715-0.619c0.398-0.555,0.854-0.933,1.365-1.133c0.51-0.2,1.152-0.301,1.926-0.301  c1.252,0,2.17,0.265,2.75,0.794c0.582,0.53,0.871,1.285,0.871,2.267v6.391h-0.986V95.915z M321.369,92.391  c-1.588,0-2.381,0.626-2.381,1.878c0,0.62,0.193,1.078,0.58,1.375c0.389,0.298,1.008,0.446,1.859,0.446  c0.426,0,0.836-0.039,1.23-0.116c0.393-0.078,0.758-0.278,1.094-0.601c0.348-0.322,0.523-0.917,0.523-1.782v-1.2H321.369z"></path>	<path fill="#172982" d="M335.643,97.367c0,0.581-0.084,1.12-0.252,1.617s-0.416,0.927-0.744,1.288  c-0.33,0.361-0.73,0.643-1.201,0.843s-1.01,0.3-1.617,0.3c-0.348,0-0.658-0.022-0.93-0.067c-0.271-0.046-0.525-0.12-0.766-0.223  c-0.238-0.104-0.467-0.232-0.688-0.388c-0.219-0.155-0.451-0.342-0.697-0.562l0.66-0.658c0.18,0.167,0.354,0.316,0.521,0.445  s0.342,0.235,0.523,0.319c0.18,0.084,0.381,0.148,0.6,0.193c0.221,0.046,0.479,0.068,0.775,0.068c0.49,0,0.914-0.081,1.268-0.242  c0.355-0.162,0.65-0.388,0.883-0.678c0.232-0.291,0.402-0.633,0.512-1.026c0.109-0.395,0.166-0.823,0.166-1.288v-1.666  c-0.414,0.543-0.844,0.898-1.289,1.065c-0.445,0.168-0.939,0.252-1.48,0.252c-0.492,0-0.934-0.074-1.326-0.223  c-0.395-0.148-0.715-0.346-0.959-0.591c-0.479-0.478-0.799-1.075-0.959-1.791c-0.162-0.717-0.242-1.443-0.242-2.179  c0-0.736,0.08-1.463,0.242-2.179c0.16-0.717,0.48-1.313,0.959-1.792c0.244-0.245,0.564-0.441,0.959-0.591  c0.393-0.147,0.834-0.223,1.326-0.223c0.541,0,1.035,0.085,1.48,0.252c0.445,0.168,0.875,0.523,1.289,1.065V87.51h0.986V97.367z   M334.656,92.178c0-0.478-0.029-0.952-0.088-1.424c-0.059-0.471-0.182-0.891-0.367-1.259c-0.188-0.368-0.455-0.665-0.805-0.891  c-0.348-0.226-0.807-0.339-1.375-0.339s-1.025,0.113-1.375,0.339c-0.348,0.226-0.617,0.522-0.803,0.891  c-0.188,0.368-0.311,0.788-0.369,1.259c-0.059,0.472-0.086,0.946-0.086,1.424c0,0.49,0.027,0.968,0.086,1.433  s0.182,0.882,0.369,1.249c0.186,0.368,0.455,0.665,0.803,0.892c0.35,0.226,0.807,0.339,1.375,0.339s1.027-0.113,1.375-0.339  c0.35-0.227,0.617-0.523,0.805-0.892c0.186-0.367,0.309-0.784,0.367-1.249S334.656,92.668,334.656,92.178z"></path>	<path fill="#172982" d="M339.846,92.391c0,1.2,0.254,2.114,0.764,2.74s1.27,0.939,2.275,0.939c0.557,0,1.023-0.087,1.404-0.262  c0.381-0.174,0.771-0.462,1.172-0.861l0.736,0.58c-0.232,0.232-0.469,0.439-0.707,0.62s-0.49,0.333-0.756,0.455  c-0.264,0.123-0.551,0.213-0.861,0.271c-0.311,0.058-0.658,0.087-1.045,0.087c-1.291,0-2.275-0.406-2.955-1.22  c-0.678-0.813-1.016-2.002-1.016-3.563c0-1.523,0.328-2.702,0.988-3.535c0.658-0.832,1.574-1.249,2.75-1.249  c1.174,0,2.092,0.397,2.75,1.191s0.986,1.914,0.986,3.36v0.445H339.846z M345.346,91.597c-0.014-0.22-0.027-0.41-0.039-0.571  c-0.014-0.161-0.029-0.307-0.049-0.436s-0.049-0.252-0.088-0.368c-0.037-0.116-0.09-0.245-0.154-0.388  c-0.207-0.49-0.525-0.874-0.959-1.152c-0.432-0.277-0.92-0.416-1.461-0.416c-0.543,0-1.031,0.139-1.463,0.416  c-0.434,0.278-0.752,0.662-0.959,1.152l-0.135,0.407c-0.039,0.116-0.068,0.235-0.088,0.357c-0.02,0.123-0.039,0.262-0.059,0.417  c-0.02,0.154-0.035,0.349-0.047,0.581H345.346z"></path>	<path fill="#172982" d="M361.924,91.054c0-0.903-0.217-1.594-0.65-2.071c-0.432-0.478-1.074-0.717-1.926-0.717  c-0.814,0-1.457,0.232-1.928,0.697s-0.707,1.104-0.707,1.917v5.965h-0.986v-5.791c0-0.903-0.217-1.594-0.65-2.071  c-0.432-0.478-1.074-0.717-1.926-0.717c-0.854,0-1.504,0.242-1.957,0.726c-0.451,0.484-0.678,1.172-0.678,2.063v5.791h-0.986V87.51  h0.986v1.104c0.697-0.813,1.621-1.221,2.77-1.221c0.697,0,1.301,0.146,1.811,0.437c0.51,0.29,0.908,0.713,1.191,1.269  c0.35-0.556,0.791-0.979,1.326-1.269c0.537-0.291,1.152-0.437,1.85-0.437c0.518,0,0.982,0.078,1.395,0.232  c0.414,0.155,0.768,0.375,1.066,0.659c0.645,0.619,0.967,1.484,0.967,2.595v5.965h-0.967V91.054z"></path>	<path fill="#172982" d="M366.979,92.391c0,1.2,0.254,2.114,0.764,2.74s1.27,0.939,2.275,0.939c0.557,0,1.023-0.087,1.404-0.262  c0.381-0.174,0.771-0.462,1.172-0.861l0.736,0.58c-0.232,0.232-0.469,0.439-0.707,0.62s-0.49,0.333-0.756,0.455  c-0.264,0.123-0.551,0.213-0.861,0.271c-0.311,0.058-0.658,0.087-1.045,0.087c-1.291,0-2.275-0.406-2.955-1.22  c-0.678-0.813-1.016-2.002-1.016-3.563c0-1.523,0.328-2.702,0.988-3.535c0.658-0.832,1.574-1.249,2.75-1.249  c1.174,0,2.092,0.397,2.75,1.191s0.986,1.914,0.986,3.36v0.445H366.979z M372.479,91.597c-0.014-0.22-0.027-0.41-0.039-0.571  c-0.014-0.161-0.029-0.307-0.049-0.436s-0.049-0.252-0.088-0.368c-0.037-0.116-0.09-0.245-0.154-0.388  c-0.207-0.49-0.525-0.874-0.959-1.152c-0.432-0.277-0.92-0.416-1.461-0.416c-0.543,0-1.031,0.139-1.463,0.416  c-0.434,0.278-0.752,0.662-0.959,1.152l-0.135,0.407c-0.039,0.116-0.068,0.235-0.088,0.357c-0.02,0.123-0.039,0.262-0.059,0.417  c-0.02,0.154-0.035,0.349-0.047,0.581H372.479z"></path>	<path fill="#172982" d="M382.857,91.054c0-0.903-0.217-1.594-0.648-2.071c-0.434-0.478-1.074-0.717-1.928-0.717  c-0.852,0-1.504,0.242-1.955,0.726c-0.453,0.484-0.678,1.172-0.678,2.063v5.791h-0.988V87.51h0.988v1.104  c0.697-0.813,1.613-1.221,2.75-1.221c1.045,0,1.871,0.298,2.479,0.892c0.645,0.619,0.969,1.484,0.969,2.595v5.965h-0.988V91.054z"></path>	<path fill="#172982" d="M389.965,96.845c-0.736,0-1.295-0.229-1.674-0.688c-0.381-0.458-0.572-1.042-0.572-1.753v-6.158h-1.277  V87.51h1.277v-2.982h0.988v2.982h2.111v0.736h-2.111v6.178c0,0.491,0.115,0.872,0.348,1.143c0.232,0.271,0.594,0.407,1.086,0.407  h0.678v0.871H389.965z"></path></g><g>	<path fill="#1A171B" d="M68.069,73.523V48.896c0-0.873,0.728-1.527,1.528-1.527h23.172c0.801,0,1.528,0.654,1.528,1.527  c0,0.801-0.728,1.455-1.528,1.455H71.052v9.386h14.842c0.8,0,1.528,0.654,1.528,1.527c0,0.801-0.728,1.455-1.528,1.455H71.052v9.35  h21.717c0.801,0,1.528,0.654,1.528,1.455c0,0.873-0.728,1.527-1.528,1.527H69.597C68.797,75.051,68.069,74.396,68.069,73.523z"></path>	<path fill="#1A171B" d="M101.572,73.523V48.896c0-0.873,0.619-1.527,1.528-1.527h15.533c5.529,0,10.04,3.892,10.04,8.767  c0,4.438-3.82,8.039-8.73,8.585l5.529,7.967c0.509,0.654,0.363,1.637-0.328,2.109c-0.291,0.146-0.619,0.255-0.873,0.255  c-0.473,0-0.946-0.182-1.237-0.618l-6.693-9.64h-11.786v8.73c0,0.873-0.655,1.527-1.455,1.527  C102.191,75.051,101.572,74.396,101.572,73.523z M118.633,61.81c4.11,0,7.057-2.474,7.057-5.675c0-3.311-2.946-5.784-7.057-5.784  h-14.078V61.81H118.633z"></path>	<path fill="#1A171B" d="M135.948,73.523V48.896c0-0.873,0.728-1.527,1.528-1.527h13.168c8.403,0,14.587,5.856,14.587,13.896  c0,7.931-6.185,13.787-14.587,13.787h-13.168C136.676,75.051,135.948,74.396,135.948,73.523z M150.645,72.068  c6.912,0,11.604-4.329,11.604-10.805c0-6.512-4.692-10.913-11.604-10.913h-11.641v21.718H150.645z"></path>	<path fill="#1A171B" d="M172.506,73.523V48.896c0-0.873,0.728-1.527,1.528-1.527h23.172c0.8,0,1.527,0.654,1.527,1.527  c0,0.801-0.728,1.455-1.527,1.455h-21.717v9.386h14.842c0.8,0,1.528,0.654,1.528,1.527c0,0.801-0.728,1.455-1.528,1.455h-14.842  v9.35h21.717c0.8,0,1.527,0.654,1.527,1.455c0,0.873-0.728,1.527-1.527,1.527h-23.172  C173.234,75.051,172.506,74.396,172.506,73.523z"></path>	<path fill="#1A171B" d="M206.009,73.523V48.896c0-0.873,0.655-1.527,1.455-1.527s1.528,0.654,1.528,1.527v23.173h21.645  c0.908,0,1.527,0.654,1.527,1.455c0,0.873-0.619,1.527-1.527,1.527h-23.172C206.664,75.051,206.009,74.396,206.009,73.523z"></path></g><path opacity="0.67" fill="#009DDF" d="M62.432,67.271c0,3.965-2.334,7.18-5.214,7.18H39.545c-2.88,0-5.214-3.215-5.214-7.18V37.604 c0-3.965,2.334-7.178,5.214-7.178h17.672c2.88,0,5.214,3.213,5.214,7.178V67.271z"></path><path opacity="0.8" fill="#172982" d="M46.376,58.436c0,3.965-2.334,7.18-5.214,7.18H23.49c-2.879,0-5.214-3.215-5.214-7.18V28.768 c0-3.963,2.334-7.178,5.214-7.178h17.673c2.88,0,5.214,3.215,5.214,7.178V58.436z"></path><g>	<path fill="#1A171B" d="M236.172,73.232l5.457-24.628c0.145-0.618,0.619-1.091,1.164-1.2c0.545-0.182,1.201,0.109,1.492,0.582  l13.859,17.315l13.859-17.315c0.363-0.473,0.945-0.728,1.49-0.582c0.51,0.109,0.982,0.51,1.164,1.164l5.494,24.664  c0.145,0.836-0.438,1.709-1.273,1.818h-0.182c-0.764,0-1.383-0.473-1.527-1.2l-4.766-21.645l-13.133,16.515  c-0.51,0.582-1.709,0.655-2.256-0.036L243.92,52.206l-4.801,21.717c-0.291,0.801-0.945,1.237-1.783,1.128  C236.535,74.905,236.027,74.032,236.172,73.232z"></path>	<path fill="#1A171B" d="M287.428,73.523V48.896c0-0.873,0.727-1.527,1.527-1.527h23.172c0.801,0,1.527,0.654,1.527,1.527  c0,0.801-0.727,1.455-1.527,1.455H290.41v9.386h14.842c0.801,0,1.527,0.654,1.527,1.527c0,0.801-0.727,1.455-1.527,1.455H290.41  v9.35h21.717c0.801,0,1.527,0.654,1.527,1.455c0,0.873-0.727,1.527-1.527,1.527h-23.172  C288.154,75.051,287.428,74.396,287.428,73.523z"></path>	<path fill="#1A171B" d="M320.93,73.523V48.896c0-0.873,0.654-1.527,1.527-1.527c0.801,0,1.455,0.654,1.455,1.527v24.628  c0,0.873-0.654,1.527-1.455,1.527C321.584,75.051,320.93,74.396,320.93,73.523z"></path>	<path fill="#1A171B" d="M331.188,73.523V48.896c0-0.873,0.729-1.527,1.527-1.527h23.174c0.799,0,1.527,0.654,1.527,1.527  c0,0.801-0.729,1.455-1.527,1.455H334.17v9.386h14.842c0.801,0,1.529,0.654,1.529,1.527c0,0.801-0.729,1.455-1.529,1.455H334.17  v9.35h21.719c0.799,0,1.527,0.654,1.527,1.455c0,0.873-0.729,1.527-1.527,1.527h-23.174  C331.916,75.051,331.188,74.396,331.188,73.523z"></path>	<path fill="#1A171B" d="M364.691,73.523V48.896c0-0.873,0.617-1.527,1.527-1.527h15.533c5.529,0,10.039,3.892,10.039,8.767  c0,4.438-3.818,8.039-8.73,8.585l5.529,7.967c0.51,0.654,0.365,1.637-0.326,2.109c-0.291,0.146-0.619,0.255-0.873,0.255  c-0.473,0-0.947-0.182-1.238-0.618l-6.693-9.64h-11.785v8.73c0,0.873-0.654,1.527-1.455,1.527  C365.309,75.051,364.691,74.396,364.691,73.523z M381.752,61.81c4.109,0,7.057-2.474,7.057-5.675c0-3.311-2.947-5.784-7.057-5.784  h-14.078V61.81H381.752z"></path></g></svg>