<?xml version="1.0" encoding="UTF-8"?>
<svg id="Layer_1" data-name="Layer 1" xmlns="http://www.w3.org/2000/svg" viewBox="0 0 341.61 220.65">
  <defs>
    <style>
      .cls-1 {
        fill: #fff;
      }
    </style>
  </defs>
  <polygon class="cls-1" points="158.97 117.19 158.97 31.89 33.04 130.49 33.04 156.85 138.11 75.67 138.11 134.91 137.97 157.46 229.57 82.84 229.57 56.53 158.97 117.19"/>
  <path class="cls-1" d="M158.97,31.89v85.3l70.59-60.66v26.31l-91.6,74.62.14-81.79-105.07,81.19v-26.36L158.97,31.89"/>
  <g>
    <polygon class="cls-1" points="214.94 51.8 214.94 51.77 214.98 51.77 221.02 46.58 237.93 32.05 190.44 32.17 190.44 72.86 214.94 51.8"/>
    <path class="cls-1" d="M305.28,59.69c-2.13-5.83-5.14-10.8-8.94-14.79-3.82-4.02-8.52-7.21-13.96-9.49-5.48-2.3-11.87-3.45-18.78-3.44l-20.9.06v19.66l16.64-.04c6.99-.07,12.6,1.9,16.86,5.69,4.44,3.97,6.7,9.62,6.72,16.81l.03,10.55c.02,7.19-2.21,12.85-6.62,16.84-4.24,3.82-9.9,5.77-16.84,5.78l-39.3.1-29.73,24.22v55.97l24.86-.07-.16-60.45,48.71-.13c6.98-.02,13.29-1.21,18.77-3.54,5.43-2.31,10.1-5.52,13.9-9.55,3.8-4.02,6.79-8.98,8.88-14.75,2.13-5.88,3.2-12.53,3.18-19.78-.02-7.09-1.13-13.71-3.3-19.67Z"/>
  </g>
  <polygon class="cls-1" points="142.23 171.02 137.97 174.47 137.97 187.29 142.23 187.29 149.9 187.29 154.16 187.29 172.91 187.29 177.17 187.29 177.17 142.67 142.23 170.99 142.23 171.02"/>
  <polygon class="cls-1" points="124.68 185.21 124.7 180.85 124.7 102.61 90.45 129.08 85.51 132.95 85.51 187.29 89.77 187.29 89.77 187.29 124.7 187.29 124.7 185.19 124.68 185.21"/>
  <polygon class="cls-1" points="41.06 167.24 33.04 173.44 33.04 187.29 37.3 187.29 37.3 187.29 72.24 187.29 72.24 143.15 41.06 167.24"/>
</svg>