<?xml version="1.0" encoding="UTF-8"?>
<svg id="Layer_1" data-name="Layer 1" xmlns="http://www.w3.org/2000/svg" viewBox="0 0 339.45 219.57">
  <defs>
    <style>
      .cls-1 {
        fill: #01986a;
      }

      .cls-2 {
        fill: #f6b41d;
      }

      .cls-3 {
        fill: #5459a7;
      }

      .cls-4 {
        fill: #111622;
      }
    </style>
  </defs>
  <polygon class="cls-4" points="157.89 117.19 157.89 31.89 31.96 130.49 31.96 156.85 137.03 75.67 137.03 134.91 136.89 157.46 228.49 82.84 228.49 56.53 157.89 117.19"/>
  <path class="cls-4" d="M157.89,31.89v85.3l70.59-60.66v26.31l-91.6,74.62.14-81.79L31.96,156.85v-26.36L157.89,31.89"/>
  <g>
    <polygon class="cls-4" points="213.86 51.8 213.86 51.77 213.9 51.77 219.94 46.58 236.85 32.05 189.36 32.17 189.36 72.86 213.86 51.8"/>
    <path class="cls-4" d="M304.2,59.69c-2.13-5.83-5.14-10.8-8.94-14.79-3.82-4.02-8.52-7.21-13.96-9.49-5.48-2.3-11.87-3.45-18.78-3.44l-20.9.06v19.66l16.64-.04c6.99-.07,12.6,1.9,16.86,5.69,4.44,3.97,6.7,9.62,6.72,16.81l.03,10.55c.02,7.19-2.21,12.85-6.62,16.84-4.24,3.82-9.9,5.77-16.84,5.78l-39.3.1-29.73,24.22v55.97l24.86-.07-.16-60.45,48.71-.13c6.98-.02,13.29-1.21,18.77-3.54,5.43-2.31,10.1-5.52,13.9-9.55,3.8-4.02,6.79-8.98,8.88-14.75,2.13-5.88,3.2-12.53,3.18-19.78-.02-7.09-1.13-13.71-3.3-19.67Z"/>
  </g>
  <polygon class="cls-1" points="141.15 171.02 136.89 174.47 136.89 187.29 141.15 187.29 148.82 187.29 153.08 187.29 171.83 187.29 176.09 187.29 176.09 142.67 141.15 170.99 141.15 171.02"/>
  <polygon class="cls-2" points="123.6 185.21 123.62 180.85 123.62 102.61 89.37 129.08 84.43 132.95 84.43 187.29 88.69 187.29 88.69 187.29 123.62 187.29 123.62 185.19 123.6 185.21"/>
  <polygon class="cls-3" points="39.98 167.24 31.96 173.44 31.96 187.29 36.22 187.29 36.22 187.29 71.16 187.29 71.16 143.15 39.98 167.24"/>
</svg>