<?xml version="1.0" encoding="UTF-8"?>
<svg id="Layer_1" data-name="Layer 1" xmlns="http://www.w3.org/2000/svg" viewBox="0 0 595.28 167.21">
  <defs>
    <style>
      .cls-1 {
        fill: #fff;
      }
    </style>
  </defs>
  <g>
    <path class="cls-1" d="M29.33,135.16v-25.19h15.01v2.67h-11.98v8.44h10.93v2.67h-10.93v11.4h-3.03Z"/>
    <path class="cls-1" d="M63.32,135.59c-1.64,0-3.11-.28-4.42-.85-1.31-.56-2.43-1.39-3.36-2.49-.93-1.09-1.64-2.45-2.15-4.08-.5-1.62-.76-3.49-.76-5.61s.25-3.98.76-5.59c.51-1.61,1.22-2.97,2.15-4.08.93-1.11,2.04-1.94,3.36-2.51,1.31-.56,2.78-.85,4.42-.85s3.08.28,4.4.85c1.32.57,2.45,1.4,3.37,2.51.93,1.11,1.64,2.47,2.15,4.08.5,1.61.76,3.48.76,5.59s-.25,3.99-.76,5.61c-.51,1.62-1.22,2.98-2.15,4.08-.93,1.1-2.05,1.93-3.37,2.49-1.32.57-2.79.85-4.4.85ZM63.32,132.92c1.08,0,2.08-.19,3-.58.91-.39,1.7-.94,2.36-1.67.66-.72,1.17-1.59,1.53-2.61s.54-2.15.54-3.4v-4.2c0-1.26-.18-2.39-.54-3.4s-.87-1.88-1.53-2.61c-.66-.72-1.45-1.28-2.36-1.67-.91-.39-1.91-.58-3-.58s-2.08.19-3,.58c-.91.39-1.7.94-2.36,1.67-.66.72-1.17,1.59-1.53,2.61s-.54,2.15-.54,3.4v4.2c0,1.26.18,2.39.54,3.4s.87,1.88,1.53,2.61c.66.72,1.45,1.28,2.36,1.67.91.39,1.91.58,3,.58ZM59.96,106.73c-.63,0-1.08-.16-1.37-.47-.29-.31-.43-.72-.43-1.23v-.43c0-.51.14-.91.43-1.23.29-.31.75-.47,1.37-.47s1.08.16,1.37.47c.29.31.43.72.43,1.23v.43c0,.5-.14.91-.43,1.23-.29.31-.75.47-1.37.47ZM66.67,106.73c-.63,0-1.08-.16-1.37-.47-.29-.31-.43-.72-.43-1.23v-.43c0-.51.14-.91.43-1.23.29-.31.75-.47,1.37-.47s1.08.16,1.37.47c.29.31.43.72.43,1.23v.43c0,.5-.14.91-.43,1.23-.29.31-.75.47-1.37.47Z"/>
    <path class="cls-1" d="M87.49,135.16h-3.03v-25.19h10.03c2.21,0,3.94.61,5.18,1.84,1.24,1.23,1.86,3,1.86,5.3,0,1.85-.43,3.37-1.28,4.56-.85,1.19-2.11,1.98-3.77,2.36l5.77,11.11h-3.43l-5.45-10.83h-5.88v10.83ZM94.49,121.74c1.2,0,2.13-.31,2.8-.94.66-.63.99-1.52.99-2.67v-1.88c0-1.16-.33-2.04-.99-2.67-.66-.62-1.59-.94-2.8-.94h-7v9.09h7Z"/>
    <path class="cls-1" d="M112.56,109.97h8.44c1.56,0,2.98.27,4.26.79,1.27.53,2.36,1.32,3.27,2.36.9,1.05,1.59,2.36,2.07,3.93.48,1.58.72,3.41.72,5.5s-.24,3.93-.72,5.5c-.48,1.58-1.17,2.89-2.07,3.93-.9,1.05-1.99,1.83-3.27,2.36-1.28.53-2.69.79-4.26.79h-8.44v-25.19ZM121,132.49c1.03,0,1.98-.17,2.85-.52.87-.35,1.61-.86,2.24-1.53.62-.67,1.11-1.5,1.46-2.47.35-.97.52-2.09.52-3.34v-4.11c0-1.25-.17-2.36-.52-3.34-.35-.97-.84-1.8-1.46-2.47-.63-.67-1.37-1.18-2.24-1.53-.87-.35-1.82-.52-2.85-.52h-5.41v19.85h5.41Z"/>
    <path class="cls-1" d="M141.78,135.16v-25.19h15.37v2.67h-12.34v8.44h11.62v2.67h-11.62v8.73h12.34v2.67h-15.37Z"/>
    <path class="cls-1" d="M170.85,135.16h-3.03v-25.19h10.03c2.21,0,3.94.61,5.18,1.84,1.24,1.23,1.86,3,1.86,5.3,0,1.85-.43,3.37-1.28,4.56-.85,1.19-2.11,1.98-3.77,2.36l5.77,11.11h-3.43l-5.45-10.83h-5.88v10.83ZM177.85,121.74c1.2,0,2.13-.31,2.8-.94.66-.63.99-1.52.99-2.67v-1.88c0-1.16-.33-2.04-.99-2.67-.66-.62-1.59-.94-2.8-.94h-7v9.09h7Z"/>
    <path class="cls-1" d="M215.56,113.94h-.18l-2.13,4.22-6.03,10.97-6.03-10.97-2.13-4.22h-.18v21.22h-2.96v-25.19h4.04l7.22,13.57h.18l7.25-13.57h3.9v25.19h-2.96v-21.22Z"/>
    <path class="cls-1" d="M229.04,135.16v-2.53h3.54v-20.13h-3.54v-2.53h10.1v2.53h-3.54v20.13h3.54v2.53h-10.1Z"/>
    <path class="cls-1" d="M257.9,112.65v22.52h-3.03v-22.52h-8.01v-2.67h19.05v2.67h-8.01Z"/>
    <path class="cls-1" d="M284.38,112.65v22.52h-3.03v-22.52h-8.01v-2.67h19.05v2.67h-8.01Z"/>
    <path class="cls-1" d="M301.55,135.16v-25.19h15.37v2.67h-12.34v8.44h11.62v2.67h-11.62v8.73h12.34v2.67h-15.37Z"/>
    <path class="cls-1" d="M327.6,135.16v-25.19h3.03v22.52h10.72v2.67h-13.75Z"/>
    <path class="cls-1" d="M348.37,125.74v-3.1h9.42v3.1h-9.42Z"/>
    <path class="cls-1" d="M383.69,135.16l-2.53-7.43h-10.18l-2.53,7.43h-3.07l8.8-25.19h3.86l8.8,25.19h-3.17ZM376.15,112.79h-.18l-4.26,12.27h8.7l-4.26-12.27Z"/>
    <path class="cls-1" d="M396.06,109.97h8.44c1.56,0,2.98.27,4.26.79,1.27.53,2.36,1.32,3.27,2.36.9,1.05,1.59,2.36,2.08,3.93.48,1.58.72,3.41.72,5.5s-.24,3.93-.72,5.5c-.48,1.58-1.17,2.89-2.08,3.93-.9,1.05-1.99,1.83-3.27,2.36-1.28.53-2.69.79-4.26.79h-8.44v-25.19ZM404.51,132.49c1.03,0,1.98-.17,2.85-.52s1.61-.86,2.24-1.53c.62-.67,1.11-1.5,1.46-2.47.35-.97.52-2.09.52-3.34v-4.11c0-1.25-.17-2.36-.52-3.34s-.84-1.8-1.46-2.47c-.63-.67-1.37-1.18-2.24-1.53s-1.82-.52-2.85-.52h-5.41v19.85h5.41Z"/>
    <path class="cls-1" d="M430.59,135.16l-8.37-25.19h3.25l4.15,12.7,2.78,9.45h.18l2.85-9.45,4.19-12.7h3.14l-8.48,25.19h-3.68Z"/>
    <path class="cls-1" d="M450.64,135.16v-2.53h3.54v-20.13h-3.54v-2.53h10.1v2.53h-3.54v20.13h3.54v2.53h-10.1Z"/>
    <path class="cls-1" d="M478.35,135.59c-2.04,0-3.79-.39-5.23-1.17-1.44-.78-2.67-1.86-3.68-3.23l2.24-1.88c.89,1.18,1.88,2.08,2.96,2.69,1.08.61,2.36.92,3.83.92,1.8,0,3.18-.43,4.13-1.3s1.43-2.02,1.43-3.46c0-1.2-.36-2.13-1.08-2.78-.72-.65-1.91-1.17-3.57-1.55l-2.06-.47c-2.31-.53-4.07-1.33-5.29-2.4s-1.82-2.58-1.82-4.53c0-1.11.2-2.09.61-2.96s.98-1.59,1.71-2.17c.73-.58,1.61-1.02,2.63-1.32,1.02-.3,2.15-.45,3.37-.45,1.9,0,3.53.35,4.89,1.05,1.36.7,2.51,1.72,3.45,3.07l-2.27,1.66c-.7-.96-1.54-1.72-2.53-2.27-.99-.55-2.21-.83-3.68-.83-1.61,0-2.88.34-3.81,1.03-.93.69-1.39,1.71-1.39,3.08,0,1.2.39,2.11,1.17,2.72.78.61,1.97,1.1,3.55,1.46l2.06.47c2.48.55,4.27,1.4,5.38,2.53s1.66,2.63,1.66,4.51c0,1.15-.2,2.2-.6,3.14-.4.94-.97,1.73-1.71,2.38-.75.65-1.65,1.16-2.72,1.52-1.07.36-2.28.54-3.63.54Z"/>
    <path class="cls-1" d="M506.67,135.59c-1.64,0-3.11-.28-4.42-.85-1.31-.56-2.43-1.39-3.36-2.49-.93-1.09-1.64-2.45-2.15-4.08s-.76-3.49-.76-5.61.25-3.98.76-5.59c.5-1.61,1.22-2.97,2.15-4.08.93-1.11,2.04-1.94,3.36-2.51,1.31-.56,2.78-.85,4.42-.85s3.08.28,4.4.85c1.32.57,2.45,1.4,3.37,2.51.93,1.11,1.64,2.47,2.15,4.08.5,1.61.76,3.48.76,5.59s-.25,3.99-.76,5.61-1.22,2.98-2.15,4.08c-.93,1.1-2.05,1.93-3.37,2.49-1.32.57-2.79.85-4.4.85ZM506.67,132.92c1.08,0,2.08-.19,3-.58.91-.39,1.7-.94,2.36-1.67.66-.72,1.17-1.59,1.53-2.61.36-1.01.54-2.15.54-3.4v-4.2c0-1.26-.18-2.39-.54-3.4-.36-1.01-.87-1.88-1.53-2.61-.66-.72-1.45-1.28-2.36-1.67-.91-.39-1.91-.58-3-.58s-2.08.19-2.99.58c-.92.39-1.7.94-2.36,1.67-.66.72-1.17,1.59-1.53,2.61-.36,1.01-.54,2.15-.54,3.4v4.2c0,1.26.18,2.39.54,3.4.36,1.01.87,1.88,1.53,2.61.66.72,1.45,1.28,2.36,1.67.91.39,1.91.58,2.99.58Z"/>
    <path class="cls-1" d="M530.84,135.16h-3.03v-25.19h10.03c2.21,0,3.94.61,5.18,1.84,1.24,1.23,1.86,3,1.86,5.3,0,1.85-.43,3.37-1.28,4.56s-2.11,1.98-3.77,2.36l5.77,11.11h-3.43l-5.45-10.83h-5.88v10.83ZM537.84,121.74c1.2,0,2.13-.31,2.8-.94.66-.63.99-1.52.99-2.67v-1.88c0-1.16-.33-2.04-.99-2.67-.66-.62-1.59-.94-2.8-.94h-7v9.09h7Z"/>
    <path class="cls-1" d="M560.38,135.16v-9.96l-8.66-15.23h3.46l6.71,12.12h.11l6.71-12.12h3.46l-8.77,15.12v10.07h-3.03Z"/>
  </g>
  <g>
    <path class="cls-1" d="M64.14,80.06H28.53v-6.96l26.11-34.24h-24.73v-6.89h33.48v6.96l-26.11,34.24h26.87v6.89Z"/>
    <path class="cls-1" d="M93.42,74.13h-.28c-.32.87-.75,1.72-1.27,2.55-.53.83-1.19,1.55-2,2.17-.8.62-1.77,1.11-2.89,1.48-1.13.37-2.42.55-3.89.55-3.72,0-6.6-1.19-8.65-3.58-2.04-2.39-3.07-5.81-3.07-10.26v-22.8h7.51v21.84c0,5.56,2.3,8.34,6.89,8.34.96,0,1.91-.13,2.82-.38.92-.25,1.73-.63,2.45-1.14.71-.5,1.29-1.15,1.72-1.93.44-.78.65-1.7.65-2.76v-23.97h7.51v35.82h-7.51v-5.92Z"/>
    <path class="cls-1" d="M123.04,80.88c-3.4,0-6.25-.6-8.54-1.79-2.3-1.19-4.29-2.85-5.99-4.96l4.82-4.41c1.33,1.61,2.81,2.86,4.44,3.75,1.63.9,3.52,1.34,5.68,1.34s3.85-.42,4.93-1.27c1.08-.85,1.62-2.03,1.62-3.55,0-1.15-.38-2.12-1.14-2.93-.76-.8-2.08-1.32-3.96-1.55l-3.31-.41c-3.67-.46-6.56-1.53-8.65-3.2-2.09-1.68-3.13-4.17-3.13-7.47,0-1.75.32-3.29.96-4.65.64-1.35,1.55-2.5,2.72-3.44,1.17-.94,2.57-1.66,4.2-2.17,1.63-.5,3.43-.76,5.41-.76,3.21,0,5.84.51,7.89,1.52,2.04,1.01,3.87,2.41,5.48,4.2l-4.62,4.41c-.92-1.1-2.12-2.06-3.62-2.86-1.49-.8-3.2-1.21-5.13-1.21-2.07,0-3.59.41-4.58,1.24-.99.83-1.48,1.91-1.48,3.24s.44,2.41,1.31,3.1c.87.69,2.27,1.19,4.2,1.52l3.31.41c3.95.6,6.83,1.76,8.65,3.48,1.81,1.72,2.72,4.03,2.72,6.92,0,1.75-.33,3.32-1,4.72-.67,1.4-1.62,2.61-2.86,3.62-1.24,1.01-2.73,1.79-4.48,2.34-1.75.55-3.7.83-5.86.83Z"/>
    <path class="cls-1" d="M159.55,80.88c-2.57,0-4.87-.44-6.89-1.31-2.02-.87-3.72-2.12-5.1-3.75-1.38-1.63-2.44-3.6-3.17-5.92-.74-2.32-1.1-4.9-1.1-7.75s.37-5.43,1.1-7.75c.73-2.32,1.79-4.29,3.17-5.92,1.38-1.63,3.08-2.88,5.1-3.75,2.02-.87,4.32-1.31,6.89-1.31,3.58,0,6.52.8,8.82,2.41,2.3,1.61,3.97,3.74,5.03,6.41l-6.2,2.89c-.51-1.65-1.39-2.97-2.65-3.96-1.26-.99-2.93-1.48-4.99-1.48-2.76,0-4.83.86-6.23,2.58-1.4,1.72-2.1,3.95-2.1,6.7v6.39c0,2.75.7,4.98,2.1,6.7,1.4,1.72,3.48,2.58,6.23,2.58,2.2,0,3.96-.54,5.27-1.62,1.31-1.08,2.35-2.51,3.13-4.31l5.72,3.03c-1.19,2.95-2.99,5.22-5.37,6.79-2.39,1.58-5.3,2.37-8.75,2.37Z"/>
    <path class="cls-1" d="M180.84,29.08h7.51v21.08h.34c.78-1.93,1.96-3.54,3.55-4.82,1.58-1.29,3.75-1.93,6.51-1.93,3.67,0,6.53,1.21,8.58,3.62,2.04,2.41,3.07,5.84,3.07,10.3v22.73h-7.51v-21.84c0-5.56-2.25-8.34-6.75-8.34-.96,0-1.92.13-2.86.38-.94.25-1.78.63-2.51,1.14-.74.51-1.32,1.15-1.76,1.93-.44.78-.65,1.68-.65,2.69v24.04h-7.51V29.08Z"/>
    <path class="cls-1" d="M242.49,74.13h-.28c-.32.87-.75,1.72-1.27,2.55-.53.83-1.19,1.55-2,2.17-.8.62-1.77,1.11-2.89,1.48-1.13.37-2.42.55-3.89.55-3.72,0-6.6-1.19-8.65-3.58-2.04-2.39-3.07-5.81-3.07-10.26v-22.8h7.51v21.84c0,5.56,2.3,8.34,6.89,8.34.96,0,1.91-.13,2.82-.38.92-.25,1.73-.63,2.45-1.14.71-.5,1.29-1.15,1.72-1.93.44-.78.65-1.7.65-2.76v-23.97h7.51v35.82h-7.51v-5.92Z"/>
    <path class="cls-1" d="M272.11,80.88c-3.4,0-6.25-.6-8.54-1.79-2.3-1.19-4.29-2.85-5.99-4.96l4.82-4.41c1.33,1.61,2.81,2.86,4.44,3.75,1.63.9,3.52,1.34,5.68,1.34s3.85-.42,4.93-1.27c1.08-.85,1.62-2.03,1.62-3.55,0-1.15-.38-2.12-1.14-2.93-.76-.8-2.08-1.32-3.96-1.55l-3.31-.41c-3.67-.46-6.56-1.53-8.65-3.2-2.09-1.68-3.13-4.17-3.13-7.47,0-1.75.32-3.29.96-4.65.64-1.35,1.55-2.5,2.72-3.44,1.17-.94,2.57-1.66,4.2-2.17,1.63-.5,3.43-.76,5.41-.76,3.21,0,5.84.51,7.89,1.52,2.04,1.01,3.87,2.41,5.48,4.2l-4.62,4.41c-.92-1.1-2.12-2.06-3.62-2.86-1.49-.8-3.2-1.21-5.13-1.21-2.07,0-3.59.41-4.58,1.24-.99.83-1.48,1.91-1.48,3.24s.44,2.41,1.31,3.1c.87.69,2.27,1.19,4.2,1.52l3.31.41c3.95.6,6.83,1.76,8.65,3.48,1.81,1.72,2.72,4.03,2.72,6.92,0,1.75-.33,3.32-1,4.72-.67,1.4-1.62,2.61-2.86,3.62-1.24,1.01-2.73,1.79-4.48,2.34-1.75.55-3.7.83-5.86.83Z"/>
    <path class="cls-1" d="M305.73,80.88c-3.4,0-6.25-.6-8.54-1.79s-4.29-2.85-5.99-4.96l4.82-4.41c1.33,1.61,2.81,2.86,4.44,3.75,1.63.9,3.52,1.34,5.68,1.34s3.85-.42,4.93-1.27c1.08-.85,1.62-2.03,1.62-3.55,0-1.15-.38-2.12-1.14-2.93-.76-.8-2.08-1.32-3.96-1.55l-3.31-.41c-3.67-.46-6.56-1.53-8.65-3.2-2.09-1.68-3.13-4.17-3.13-7.47,0-1.75.32-3.29.96-4.65.64-1.35,1.55-2.5,2.72-3.44,1.17-.94,2.57-1.66,4.2-2.17,1.63-.5,3.43-.76,5.41-.76,3.21,0,5.84.51,7.89,1.52,2.04,1.01,3.87,2.41,5.48,4.2l-4.62,4.41c-.92-1.1-2.12-2.06-3.62-2.86-1.49-.8-3.2-1.21-5.13-1.21-2.07,0-3.59.41-4.58,1.24-.99.83-1.48,1.91-1.48,3.24s.44,2.41,1.31,3.1c.87.69,2.27,1.19,4.2,1.52l3.31.41c3.95.6,6.83,1.76,8.65,3.48,1.81,1.72,2.72,4.03,2.72,6.92,0,1.75-.33,3.32-1,4.72-.67,1.4-1.62,2.61-2.86,3.62-1.24,1.01-2.73,1.79-4.48,2.34-1.75.55-3.7.83-5.86.83Z"/>
    <path class="cls-1" d="M355.72,80.06V31.97h20.67c4.45,0,7.9,1.31,10.33,3.93s3.65,6.13,3.65,10.54-1.22,7.92-3.65,10.54-5.88,3.93-10.33,3.93h-12.88v19.15h-7.78ZM363.5,54.02h12.4c1.97,0,3.51-.51,4.62-1.54,1.1-1.02,1.65-2.49,1.65-4.4v-3.28c0-1.91-.55-3.38-1.65-4.4-1.1-1.02-2.64-1.54-4.62-1.54h-12.4v15.16Z"/>
    <path class="cls-1" d="M402.15,37.83c-1.56,0-2.7-.37-3.41-1.1-.71-.73-1.07-1.68-1.07-2.82v-1.17c0-1.15.36-2.09,1.07-2.82.71-.73,1.85-1.1,3.41-1.1s2.69.37,3.38,1.1c.69.74,1.03,1.68,1.03,2.82v1.17c0,1.15-.34,2.09-1.03,2.82-.69.74-1.82,1.1-3.38,1.1ZM398.36,44.23h7.51v35.82h-7.51v-35.82Z"/>
    <path class="cls-1" d="M424.26,80.06c-2.57,0-4.49-.65-5.75-1.96-1.26-1.31-1.89-3.13-1.89-5.48V29.08h7.51v44.85h4.96v6.13h-4.82Z"/>
    <path class="cls-1" d="M450.3,80.88c-2.48,0-4.74-.44-6.79-1.31-2.04-.87-3.78-2.12-5.2-3.75-1.42-1.63-2.53-3.6-3.31-5.92-.78-2.32-1.17-4.9-1.17-7.75s.39-5.43,1.17-7.75c.78-2.32,1.88-4.29,3.31-5.92,1.42-1.63,3.16-2.88,5.2-3.75,2.04-.87,4.31-1.31,6.79-1.31s4.74.44,6.79,1.31c2.04.87,3.78,2.12,5.2,3.75,1.42,1.63,2.53,3.61,3.31,5.92.78,2.32,1.17,4.9,1.17,7.75s-.39,5.43-1.17,7.75c-.78,2.32-1.88,4.29-3.31,5.92-1.42,1.63-3.16,2.88-5.2,3.75-2.04.87-4.31,1.31-6.79,1.31ZM450.3,74.61c2.57,0,4.64-.79,6.2-2.36,1.56-1.58,2.34-3.94,2.34-7.09v-6.03c0-3.15-.78-5.51-2.34-7.09-1.56-1.58-3.63-2.36-6.2-2.36s-4.64.79-6.2,2.36c-1.56,1.58-2.34,3.94-2.34,7.09v6.03c0,3.15.78,5.51,2.34,7.09,1.56,1.58,3.63,2.36,6.2,2.36Z"/>
    <path class="cls-1" d="M484.82,80.06c-2.62,0-4.59-.68-5.92-2.03-1.33-1.35-2-3.27-2-5.75v-21.91h-5.58v-6.13h3.03c1.24,0,2.1-.28,2.58-.83.48-.55.72-1.45.72-2.69v-6.27h6.75v9.78h7.51v6.13h-7.51v23.56h6.96v6.13h-6.54Z"/>
    <path class="cls-1" d="M513.82,80.88c-2.57,0-4.87-.44-6.89-1.31-2.02-.87-3.74-2.12-5.17-3.75-1.42-1.63-2.51-3.6-3.27-5.92-.76-2.32-1.14-4.9-1.14-7.75s.38-5.43,1.14-7.75c.76-2.32,1.85-4.29,3.27-5.92,1.42-1.63,3.15-2.88,5.17-3.75,2.02-.87,4.32-1.31,6.89-1.31s4.93.46,6.92,1.38c2,.92,3.66,2.19,5,3.82,1.33,1.63,2.33,3.53,3,5.68.67,2.16,1,4.48,1,6.96v2.82h-24.59v1.16c0,2.74.81,4.98,2.45,6.74,1.63,1.76,3.96,2.63,6.99,2.63,2.2,0,4.06-.48,5.58-1.44s2.8-2.26,3.86-3.9l4.41,4.35c-1.33,2.21-3.26,3.97-5.79,5.29-2.53,1.31-5.47,1.97-8.82,1.97ZM513.82,49.26c-1.29,0-2.47.23-3.55.69-1.08.46-2,1.1-2.76,1.93s-1.34,1.81-1.76,2.96c-.41,1.15-.62,2.41-.62,3.79v.48h16.67v-.69c0-2.76-.71-4.97-2.14-6.65-1.42-1.68-3.38-2.51-5.86-2.51Z"/>
    <path class="cls-1" d="M538.07,80.06v-35.82h7.51v5.92h.34c.78-1.93,1.96-3.54,3.55-4.82,1.58-1.29,3.75-1.93,6.51-1.93,3.67,0,6.53,1.21,8.58,3.62,2.04,2.41,3.07,5.84,3.07,10.3v22.73h-7.51v-21.77c0-5.6-2.25-8.4-6.75-8.4-.96,0-1.92.13-2.86.38-.94.25-1.78.63-2.51,1.14-.73.51-1.32,1.15-1.76,1.93-.44.78-.65,1.7-.65,2.76v23.97h-7.51Z"/>
  </g>
</svg>